<svg width="457" height="116" viewBox="0 0 457 116" fill="none" xmlns="http://www.w3.org/2000/svg">
<g clip-path="url(#clip0_32_257)">
<circle cx="50" cy="58" r="50" fill="url(#paint0_radial_32_257)"/>
<g style="mix-blend-mode:color" filter="url(#filter0_f_32_257)">
<path d="M103.594 110.119C93.5461 119.707 80.8988 126.435 67.0692 129.549C53.2396 132.663 38.7745 132.04 25.2951 127.75C11.8158 123.459 -0.145041 115.672 -9.24663 105.259C-18.3482 94.8464 -24.2308 82.2207 -26.2351 68.797C-28.2394 55.3733 -26.2862 41.6822 -20.5943 29.2583C-14.9024 16.8344 -5.69693 6.16876 5.9904 -1.54311C17.6777 -9.25499 31.3849 -13.7083 45.5756 -14.4039C59.7663 -15.0995 73.8795 -12.0098 86.3334 -5.48128L49.5 58.5L103.594 110.119Z" fill="url(#paint1_radial_32_257)"/>
</g>
</g>
<path d="M181.024 45.824C178.656 43.456 175.872 41.632 172.672 40.352C169.536 39.008 166.4 38.336 163.264 38.336C160.512 38.336 157.984 38.848 155.68 39.872C153.376 40.896 151.36 42.304 149.632 44.096C147.904 45.888 146.56 48 145.6 50.432C144.704 52.864 144.256 55.488 144.256 58.304C144.256 61.184 144.736 63.84 145.696 66.272C146.656 68.704 148 70.848 149.728 72.704C151.456 74.496 153.472 75.904 155.776 76.928C158.144 77.952 160.704 78.464 163.456 78.464C165.888 78.464 168.64 77.888 171.712 76.736C174.848 75.52 177.696 73.952 180.256 72.032L190.24 84.416C187.872 86.08 185.088 87.584 181.888 88.928C178.752 90.272 175.456 91.328 172 92.096C168.608 92.864 165.344 93.248 162.208 93.248C157.088 93.248 152.32 92.384 147.904 90.656C143.552 88.864 139.744 86.4 136.48 83.264C133.216 80.128 130.688 76.416 128.896 72.128C127.104 67.84 126.208 63.232 126.208 58.304C126.208 53.376 127.136 48.8 128.992 44.576C130.848 40.352 133.44 36.672 136.768 33.536C140.16 30.4 144.096 27.968 148.576 26.24C153.12 24.512 158.048 23.648 163.36 23.648C166.688 23.648 170.016 24.064 173.344 24.896C176.736 25.728 179.936 26.88 182.944 28.352C186.016 29.824 188.704 31.616 191.008 33.728L181.024 45.824ZM175.072 57.728H190.24V84.416H175.072V57.728ZM234.416 61.568C234.48 59.456 234.096 57.664 233.264 56.192C232.496 54.656 231.376 53.472 229.904 52.64C228.432 51.808 226.736 51.392 224.816 51.392C222.576 51.392 220.656 52 219.056 53.216C217.52 54.368 216.304 56 215.408 58.112C214.576 60.16 214.16 62.56 214.16 65.312C214.16 68.32 214.672 70.912 215.696 73.088C216.72 75.264 218.16 76.96 220.016 78.176C221.936 79.328 224.144 79.904 226.64 79.904C231.248 79.904 235.312 78.144 238.832 74.624L247.76 83.456C245.136 86.336 241.904 88.576 238.064 90.176C234.288 91.776 229.968 92.576 225.104 92.576C219.472 92.576 214.576 91.488 210.416 89.312C206.32 87.136 203.152 84.064 200.912 80.096C198.736 76.128 197.648 71.52 197.648 66.272C197.648 60.896 198.768 56.224 201.008 52.256C203.248 48.224 206.416 45.12 210.512 42.944C214.608 40.704 219.344 39.584 224.72 39.584C230.8 39.584 235.824 40.864 239.792 43.424C243.824 45.92 246.768 49.504 248.624 54.176C250.544 58.848 251.312 64.32 250.928 70.592H211.76V61.568H234.416ZM295.812 64.064C295.812 61.12 295.012 58.784 293.412 57.056C291.812 55.328 289.668 54.464 286.98 54.464C283.78 54.528 281.252 55.68 279.396 57.92C277.604 60.096 276.708 62.912 276.708 66.368H272.676C272.676 60.48 273.54 55.552 275.268 51.584C276.996 47.552 279.428 44.512 282.564 42.464C285.764 40.416 289.572 39.392 293.988 39.392C297.764 39.392 301.06 40.224 303.875 41.888C306.756 43.488 308.964 45.792 310.5 48.8C312.036 51.744 312.804 55.232 312.804 59.264V92H295.812V64.064ZM259.716 40.16H276.804V92H259.716V40.16ZM359.059 56.288C355.859 54.624 352.851 53.344 350.035 52.448C347.219 51.552 344.723 51.104 342.547 51.104C341.139 51.104 339.955 51.392 338.995 51.968C338.099 52.48 337.651 53.312 337.651 54.464C337.651 55.616 338.291 56.544 339.571 57.248C340.915 57.888 342.611 58.528 344.659 59.168C346.771 59.744 348.979 60.384 351.283 61.088C353.587 61.792 355.763 62.752 357.811 63.968C359.923 65.12 361.619 66.688 362.899 68.672C364.179 70.592 364.819 73.056 364.819 76.064C364.819 79.584 363.859 82.592 361.939 85.088C360.083 87.584 357.491 89.472 354.163 90.752C350.899 92.032 347.123 92.672 342.835 92.672C338.483 92.672 334.291 92.064 330.259 90.848C326.227 89.632 322.611 87.808 319.411 85.376L324.787 74.528C327.795 76.576 330.899 78.176 334.099 79.328C337.299 80.416 340.339 80.96 343.219 80.96C344.307 80.96 345.235 80.832 346.003 80.576C346.835 80.32 347.475 79.968 347.923 79.52C348.435 79.008 348.691 78.368 348.691 77.6C348.691 76.384 348.051 75.424 346.771 74.72C345.491 73.952 343.827 73.312 341.779 72.8C339.731 72.224 337.555 71.584 335.251 70.88C332.947 70.176 330.771 69.248 328.723 68.096C326.739 66.88 325.107 65.312 323.827 63.392C322.547 61.472 321.907 59.008 321.907 56C321.907 52.416 322.835 49.408 324.691 46.976C326.611 44.48 329.139 42.592 332.275 41.312C335.475 40.032 339.123 39.392 343.219 39.392C346.995 39.392 350.739 39.904 354.451 40.928C358.163 41.888 361.619 43.36 364.819 45.344L359.059 56.288ZM410.573 64.064C410.573 61.12 409.773 58.784 408.173 57.056C406.573 55.328 404.429 54.464 401.741 54.464C398.605 54.528 396.109 55.68 394.253 57.92C392.461 60.096 391.565 62.912 391.565 66.368H387.437C387.437 60.48 388.301 55.552 390.029 51.584C391.757 47.552 394.221 44.512 397.421 42.464C400.621 40.416 404.397 39.392 408.749 39.392C412.589 39.392 415.917 40.224 418.733 41.888C421.549 43.488 423.725 45.792 425.261 48.8C426.861 51.744 427.661 55.232 427.661 59.264V92H410.573V64.064ZM374.477 20.768H391.565V92H374.477V20.768ZM439.153 40.16H456.145V92H439.153V40.16ZM447.697 16.352C450.321 16.352 452.465 17.216 454.129 18.944C455.857 20.608 456.721 22.752 456.721 25.376C456.721 27.936 455.857 30.08 454.129 31.808C452.465 33.472 450.321 34.304 447.697 34.304C445.073 34.304 442.897 33.472 441.169 31.808C439.505 30.08 438.673 27.936 438.673 25.376C438.673 22.752 439.505 20.608 441.169 18.944C442.897 17.216 445.073 16.352 447.697 16.352Z" fill="white"/>
<defs>
<filter id="filter0_f_32_257" x="-77" y="-64.5" width="230.594" height="246" filterUnits="userSpaceOnUse" color-interpolation-filters="sRGB">
<feFlood flood-opacity="0" result="BackgroundImageFix"/>
<feBlend mode="normal" in="SourceGraphic" in2="BackgroundImageFix" result="shape"/>
<feGaussianBlur stdDeviation="25" result="effect1_foregroundBlur_32_257"/>
</filter>
<radialGradient id="paint0_radial_32_257" cx="0" cy="0" r="1" gradientUnits="userSpaceOnUse" gradientTransform="translate(-7.51019e-06 108) rotate(-45) scale(89.0955)">
<stop stop-color="#D5DBFF"/>
<stop offset="1" stop-color="#B91C1C"/>
</radialGradient>
<radialGradient id="paint1_radial_32_257" cx="0" cy="0" r="1" gradientUnits="userSpaceOnUse" gradientTransform="translate(126 131.5) rotate(-126.427) scale(128.832 130.752)">
<stop stop-color="#B91C1C"/>
<stop offset="1" stop-color="#2563EB"/>
</radialGradient>
<clipPath id="clip0_32_257">
<rect y="8" width="100" height="100" rx="50" fill="white"/>
</clipPath>
</defs>
</svg>
